<svg width="24.000000000000004" height="24.000000000000004" xmlns="http://www.w3.org/2000/svg">

 <g>
  <title>background</title>
  <rect fill="none" id="canvas_background" height="402" width="582" y="-1" x="-1"/>
 </g>
 <g>
  <title>Layer 1</title>
  <path fill="#ffffff" id="svg_1" d="m19.607,18.746c0,0.881 -0.716,1.624 -1.597,1.624l-12.779,0c-0.881,0 -1.597,-0.743 -1.597,-1.624l0,-12.779c0,-0.881 0.716,-1.571 1.597,-1.571l7.454,0l0,-1.064l-7.454,0c-1.468,0 -2.662,1.168 -2.662,2.636l0,12.778c0,1.468 1.194,2.688 2.662,2.688l12.778,0c1.468,0 2.662,-1.221 2.662,-2.688l0,-7.428l-1.065,0l0,7.428l0.001,0z"/>
  <path fill="#ffffff" id="svg_2" d="m20.807,3.17c-0.804,-0.805 -2.207,-0.805 -3.012,0l-7.143,7.143c-0.068,0.068 -0.117,0.154 -0.14,0.247l-0.752,3.011c-0.045,0.181 0.008,0.373 0.14,0.506c0.101,0.101 0.237,0.156 0.376,0.156c0.043,0 0.086,-0.005 0.129,-0.016l3.012,-0.753c0.094,-0.023 0.179,-0.072 0.247,-0.14l7.143,-7.143c0.402,-0.402 0.624,-0.937 0.624,-1.506s-0.221,-1.103 -0.624,-1.505zm-7.791,9.297l-2.008,0.502l0.502,-2.008l5.909,-5.909l1.506,1.506l-5.909,5.909zm7.038,-7.039l-0.376,0.376l-1.506,-1.506l0.376,-0.376c0.402,-0.402 1.104,-0.402 1.506,0c0.201,0.201 0.312,0.468 0.312,0.753c0,0.285 -0.111,0.552 -0.312,0.753z"/>
 </g>
</svg>